<svg xmlns="http://www.w3.org/2000/svg" viewBox="0 0 1024 1024">
  <rect width="1024" height="1024" fill="#16362a"/>
  <g transform="translate(232.0 271.8) scale(0.16213) translate(-53.2 2015.3)">
    <g fill="#f6f1e7" transform="scale(1 -1)"><path transform="translate(0 0)" d="M400.00201416015625 712.7999877929688V94.4000244140625L539.2010498046875 48.60009765625V0H56.199951171875V48.60009765625L201.9993896484375 96.60015869140625V680.5994262695312Q184.19927978515625 700.5996704101562 149.99932861328125 720.3997497558594Q115.79937744140625 740.1998291015625 53.19970703125 764.9998168945312V798.2001342773438L328.20123291015625 907.8003540039062H357.00152587890625ZM664.4004516601562 48.60009765625 804.7994995117188 94.4000244140625V573.3999633789062Q804.7994995117188 626.7997436523438 783.4996337890625 663.3995361328125Q762.1997680664062 699.9993286132812 720.4000244140625 719.2991943359375Q678.6002807617188 738.5990600585938 614.8005981445312 738.5990600585938Q542.8009643554688 738.5990600585938 479.90130615234375 714.999267578125Q417.00164794921875 691.3994750976562 384.8016357421875 657.3997192382812L348.0015869140625 695.2000122070312Q411.601806640625 759.000244140625 462.50189208984375 800.0003356933594Q513.4019775390625 841.0004272460938 557.8019714355469 864.5004272460938Q602.2019653320312 888.0004272460938 647.1018981933594 897.5003967285156Q692.0018310546875 907.0003662109375 742.4017333984375 907.0003662109375Q874.4019165039062 907.0003662109375 938.0020141601562 827.7003173828125Q1001.6021118164062 748.4002685546875 1001.6021118164062 581.80029296875V96.60015869140625L1149.4015502929688 48.60009765625V0H664.4004516601562Z"/><path transform="translate(1150 0)" d="M410.20208740234375 907.0003662109375 401.20196533203125 717.1993408203125V96.60015869140625L547.0014038085938 48.60009765625V0H58.59991455078125V48.60009765625L203.39935302734375 96.60015869140625V694.3994750976562Q191.59930419921875 707.3995971679688 167.599365234375 723.1996459960938Q143.59942626953125 738.9996948242188 114.69952392578125 754.4997253417969Q85.79962158203125 769.999755859375 55.7996826171875 781.1998291015625V820.6000366210938L375.60150146484375 907.0003662109375Z"/><path transform="translate(1712 0)" d="M693.2017822265625 900.0003051757812Q748.2020874023438 900.0003051757812 774.0021667480469 871.4000854492188Q799.80224609375 842.7998657226562 799.80224609375 798.399658203125Q799.80224609375 743.19921875 768.6019897460938 712.0990600585938Q737.4017333984375 680.9989013671875 690.8016967773438 680.9989013671875Q659.2013549804688 680.9989013671875 631.1012573242188 688.4989013671875Q603.0011596679688 695.9989013671875 574.7011413574219 703.0989074707031Q546.401123046875 710.1989135742188 512.801025390625 710.1989135742188Q489.60101318359375 710.1989135742188 464.1011047363281 704.4989318847656Q438.6011962890625 698.7989501953125 413.40130615234375 687.5989685058594Q388.201416015625 676.3989868164062 367.40142822265625 660.198974609375L343.00140380859375 700.79931640625Q405.80133056640625 754.3995971679688 456.40130615234375 792.0997924804688Q507.00128173828125 829.7999877929688 549.601318359375 853.60009765625Q592.2013549804688 877.4002075195312 627.50146484375 888.7002563476562Q662.8015747070312 900.0003051757812 693.2017822265625 900.0003051757812ZM400.00201416015625 712.7999877929688V98.000244140625L553.8016357421875 48.60009765625V0H56.199951171875V48.60009765625L201.9993896484375 96.60015869140625V680.5994262695312Q188.1993408203125 695.9995727539062 166.599365234375 709.2996520996094Q144.9993896484375 722.5997314453125 116.5994873046875 736.7997741699219Q88.1995849609375 750.9998168945312 53.39971923828125 764.9998168945312V798.2001342773438L346.601318359375 907.8003540039062H375.401611328125Z"/><path transform="translate(2514 0)" d="M535.4005126953125 77.20050048828125Q608.2000122070312 77.20050048828125 663.4996032714844 112.10037231445312Q718.7991943359375 147.000244140625 749.2989501953125 221.30007934570312Q779.7987060546875 295.59991455078125 779.7987060546875 412.99981689453125Q779.7987060546875 543.1998291015625 750.0989379882812 630.3998107910156Q720.399169921875 717.5997924804688 665.1995544433594 762.6997680664062Q609.9999389648438 807.7997436523438 531.400390625 807.7997436523438Q458.8009033203125 807.7997436523438 403.90130615234375 772.8998718261719Q349.001708984375 738 317.9019470214844 663.7001647949219Q286.80218505859375 589.4003295898438 286.80218505859375 471.00042724609375Q286.80218505859375 342.60040283203125 316.4019470214844 254.50042724609375Q346.001708984375 166.40045166015625 401.80133056640625 121.80047607421875Q457.6009521484375 77.20050048828125 535.4005126953125 77.20050048828125ZM527.8003540039062 -22.0001220703125Q390.60003662109375 -22.0001220703125 288.2998962402344 35.099884033203125Q185.999755859375 92.19989013671875 130.29971313476562 195.39993286132812Q74.59967041015625 298.5999755859375 74.59967041015625 433.00006103515625Q74.59967041015625 572.0001831054688 133.999755859375 679.1002502441406Q193.39984130859375 786.2003173828125 298.0000305175781 846.600341796875Q402.6002197265625 907.0003662109375 539.0005493164062 907.0003662109375Q677.2008666992188 907.0003662109375 779.0010070800781 849.4003601074219Q880.8011474609375 791.8003540039062 937.0011901855469 689.6003112792969Q993.2012329101562 587.4002685546875 993.2012329101562 452.00018310546875Q993.2012329101562 313.2000732421875 933.8011474609375 206.0Q874.4010620117188 98.7999267578125 769.7008666992188 38.39990234375Q665.0006713867188 -22.0001220703125 527.8003540039062 -22.0001220703125Z"/></g>
    <g fill="#cc9e52" transform="translate(941.0 -2150.0) scale(41.666666666666664)">
      <path transform="rotate(214 12 13.5)" d="M12 2 C 12 2 5.5 9.5 5.5 15 A 6.5 6.5 0 0 0 18.5 15 C 18.5 9.5 12 2 12 2 Z"/>
    </g>
  </g>
  <g transform="translate(113.2 752.2) scale(0.13773 -0.13773)" fill="#f6f1e7">
    <path transform="translate(0 0)" d="M10.9996337890625 0 286.6002197265625 697H374.601318359375L649.8018798828125 0H523.800048828125L331.4007568359375 527.79736328125L137.6014404296875 0ZM183.0010986328125 145.598876953125 218.8016357421875 249.0003662109375H442.39990234375L480.200439453125 145.598876953125Z"/><path transform="translate(741.0 0)" d="M295.6002197265625 -12.60009765625Q186.199951171875 -12.60009765625 116.3997802734375 44.4000244140625Q46.599609375 101.400146484375 31.1995849609375 196.0003662109375L144.001220703125 223.80078125Q155.001220703125 157.801025390625 196.700927734375 124.1011962890625Q238.400634765625 90.4013671875 299.4002685546875 90.4013671875Q333.199951171875 90.4013671875 359.99969482421875 102.6011962890625Q386.7994384765625 114.801025390625 402.3992919921875 137.70074462890625Q417.9991455078125 160.6004638671875 417.9991455078125 190.400146484375Q417.9991455078125 220.5997314453125 401.1993408203125 241.19952392578125Q384.3995361328125 261.79931640625 352.29974365234375 278.39923095703125Q320.199951171875 294.9991455078125 274 312.59912109375Q210.7996826171875 336.999267578125 166.69964599609375 365.19940185546875Q122.599609375 393.3995361328125 99.7996826171875 431.69964599609375Q76.999755859375 469.999755859375 76.999755859375 522.999755859375Q76.999755859375 577.9998779296875 103.99981689453125 620.3999633789062Q130.9998779296875 662.800048828125 179.79998779296875 687.10009765625Q228.60009765625 711.400146484375 293.000244140625 711.400146484375Q361.8004150390625 711.400146484375 415.00054931640625 680.0000610351562Q468.20068359375 648.5999755859375 500.4007568359375 585.999755859375L408.3994140625 529.7989501953125Q386.99951171875 568.3988037109375 356.99969482421875 588.69873046875Q326.9998779296875 608.9986572265625 289.2001953125 608.9986572265625Q261.6005859375 608.9986572265625 239.70086669921875 598.3988037109375Q217.8011474609375 587.7989501953125 205.2012939453125 568.9992065429688Q192.6014404296875 550.199462890625 192.6014404296875 525.3997802734375Q192.6014404296875 499.400146484375 207.60125732421875 479.90032958984375Q222.60107421875 460.4005126953125 254.200927734375 444.00054931640625Q285.80078125 427.6005859375 334.600830078125 409.2005615234375Q398.0009765625 385.4005126953125 441.80096435546875 357.200439453125Q485.6009521484375 329.0003662109375 509.10089111328125 290.7003173828125Q532.600830078125 252.4002685546875 532.600830078125 197.4002685546875Q532.600830078125 136.400146484375 502.60076904296875 89.00006103515625Q472.6007080078125 41.5999755859375 419.40057373046875 14.49993896484375Q366.200439453125 -12.60009765625 295.6002197265625 -12.60009765625Z"/><path transform="translate(1393.0 0)" d="M295.6002197265625 -12.60009765625Q186.199951171875 -12.60009765625 116.3997802734375 44.4000244140625Q46.599609375 101.400146484375 31.1995849609375 196.0003662109375L144.001220703125 223.80078125Q155.001220703125 157.801025390625 196.700927734375 124.1011962890625Q238.400634765625 90.4013671875 299.4002685546875 90.4013671875Q333.199951171875 90.4013671875 359.99969482421875 102.6011962890625Q386.7994384765625 114.801025390625 402.3992919921875 137.70074462890625Q417.9991455078125 160.6004638671875 417.9991455078125 190.400146484375Q417.9991455078125 220.5997314453125 401.1993408203125 241.19952392578125Q384.3995361328125 261.79931640625 352.29974365234375 278.39923095703125Q320.199951171875 294.9991455078125 274 312.59912109375Q210.7996826171875 336.999267578125 166.69964599609375 365.19940185546875Q122.599609375 393.3995361328125 99.7996826171875 431.69964599609375Q76.999755859375 469.999755859375 76.999755859375 522.999755859375Q76.999755859375 577.9998779296875 103.99981689453125 620.3999633789062Q130.9998779296875 662.800048828125 179.79998779296875 687.10009765625Q228.60009765625 711.400146484375 293.000244140625 711.400146484375Q361.8004150390625 711.400146484375 415.00054931640625 680.0000610351562Q468.20068359375 648.5999755859375 500.4007568359375 585.999755859375L408.3994140625 529.7989501953125Q386.99951171875 568.3988037109375 356.99969482421875 588.69873046875Q326.9998779296875 608.9986572265625 289.2001953125 608.9986572265625Q261.6005859375 608.9986572265625 239.70086669921875 598.3988037109375Q217.8011474609375 587.7989501953125 205.2012939453125 568.9992065429688Q192.6014404296875 550.199462890625 192.6014404296875 525.3997802734375Q192.6014404296875 499.400146484375 207.60125732421875 479.90032958984375Q222.60107421875 460.4005126953125 254.200927734375 444.00054931640625Q285.80078125 427.6005859375 334.600830078125 409.2005615234375Q398.0009765625 385.4005126953125 441.80096435546875 357.200439453125Q485.6009521484375 329.0003662109375 509.10089111328125 290.7003173828125Q532.600830078125 252.4002685546875 532.600830078125 197.4002685546875Q532.600830078125 136.400146484375 502.60076904296875 89.00006103515625Q472.6007080078125 41.5999755859375 419.40057373046875 14.49993896484375Q366.200439453125 -12.60009765625 295.6002197265625 -12.60009765625Z"/><path transform="translate(2045.0 0)" d="M70.99951171875 0V697H186.6011962890625V0Z"/><path transform="translate(2383.0 0)" d="M295.6002197265625 -12.60009765625Q186.199951171875 -12.60009765625 116.3997802734375 44.4000244140625Q46.599609375 101.400146484375 31.1995849609375 196.0003662109375L144.001220703125 223.80078125Q155.001220703125 157.801025390625 196.700927734375 124.1011962890625Q238.400634765625 90.4013671875 299.4002685546875 90.4013671875Q333.199951171875 90.4013671875 359.99969482421875 102.6011962890625Q386.7994384765625 114.801025390625 402.3992919921875 137.70074462890625Q417.9991455078125 160.6004638671875 417.9991455078125 190.400146484375Q417.9991455078125 220.5997314453125 401.1993408203125 241.19952392578125Q384.3995361328125 261.79931640625 352.29974365234375 278.39923095703125Q320.199951171875 294.9991455078125 274 312.59912109375Q210.7996826171875 336.999267578125 166.69964599609375 365.19940185546875Q122.599609375 393.3995361328125 99.7996826171875 431.69964599609375Q76.999755859375 469.999755859375 76.999755859375 522.999755859375Q76.999755859375 577.9998779296875 103.99981689453125 620.3999633789062Q130.9998779296875 662.800048828125 179.79998779296875 687.10009765625Q228.60009765625 711.400146484375 293.000244140625 711.400146484375Q361.8004150390625 711.400146484375 415.00054931640625 680.0000610351562Q468.20068359375 648.5999755859375 500.4007568359375 585.999755859375L408.3994140625 529.7989501953125Q386.99951171875 568.3988037109375 356.99969482421875 588.69873046875Q326.9998779296875 608.9986572265625 289.2001953125 608.9986572265625Q261.6005859375 608.9986572265625 239.70086669921875 598.3988037109375Q217.8011474609375 587.7989501953125 205.2012939453125 568.9992065429688Q192.6014404296875 550.199462890625 192.6014404296875 525.3997802734375Q192.6014404296875 499.400146484375 207.60125732421875 479.90032958984375Q222.60107421875 460.4005126953125 254.200927734375 444.00054931640625Q285.80078125 427.6005859375 334.600830078125 409.2005615234375Q398.0009765625 385.4005126953125 441.80096435546875 357.200439453125Q485.6009521484375 329.0003662109375 509.10089111328125 290.7003173828125Q532.600830078125 252.4002685546875 532.600830078125 197.4002685546875Q532.600830078125 136.400146484375 502.60076904296875 89.00006103515625Q472.6007080078125 41.5999755859375 419.40057373046875 14.49993896484375Q366.200439453125 -12.60009765625 295.6002197265625 -12.60009765625Z"/><path transform="translate(3035.0 0)" d="M234.1990966796875 0V593.5985107421875H12.1998291015625V697H572.2000732421875V593.5985107421875H351.2008056640625V0Z"/><path transform="translate(3700.0 0)" d="M10.9996337890625 0 286.6002197265625 697H374.601318359375L649.8018798828125 0H523.800048828125L331.4007568359375 527.79736328125L137.6014404296875 0ZM183.0010986328125 145.598876953125 218.8016357421875 249.0003662109375H442.39990234375L480.200439453125 145.598876953125Z"/><path transform="translate(4441.0 0)" d="M70.99951171875 0V697H190.8011474609375L526.599853515625 150.80224609375H498.1993408203125V697H613.801025390625V0H492.3994140625L158.6007080078125 547.19775390625H186.6011962890625V0Z"/><path transform="translate(5206.0 0)" d="M234.1990966796875 0V593.5985107421875H12.1998291015625V697H572.2000732421875V593.5985107421875H351.2008056640625V0Z"/>
  </g>
</svg>
