<svg xmlns="http://www.w3.org/2000/svg" viewBox="0 0 1024 1024">
  <rect width="1024" height="1024" fill="#b8863b"/>
  <g transform="translate(232.00 223.54) scale(0.163686) translate(-53.2 2015.29)">
    <g fill="#0c1f18" transform="scale(1 -1)"><path transform="translate(0.00 0)" d="M400.00201416015625 712.7999877929688V94.4000244140625L539.2010498046875 48.60009765625V0H56.199951171875V48.60009765625L201.9993896484375 96.60015869140625V680.5994262695312Q184.19927978515625 700.5996704101562 149.99932861328125 720.3997497558594Q115.79937744140625 740.1998291015625 53.19970703125 764.9998168945312V798.2001342773438L328.20123291015625 907.8003540039062H357.00152587890625ZM664.4004516601562 48.60009765625 804.7994995117188 94.4000244140625V573.3999633789062Q804.7994995117188 626.7997436523438 783.4996337890625 663.3995361328125Q762.1997680664062 699.9993286132812 720.4000244140625 719.2991943359375Q678.6002807617188 738.5990600585938 614.8005981445312 738.5990600585938Q542.8009643554688 738.5990600585938 479.90130615234375 714.999267578125Q417.00164794921875 691.3994750976562 384.8016357421875 657.3997192382812L348.0015869140625 695.2000122070312Q411.601806640625 759.000244140625 462.50189208984375 800.0003356933594Q513.4019775390625 841.0004272460938 557.8019714355469 864.5004272460938Q602.2019653320312 888.0004272460938 647.1018981933594 897.5003967285156Q692.0018310546875 907.0003662109375 742.4017333984375 907.0003662109375Q874.4019165039062 907.0003662109375 938.0020141601562 827.7003173828125Q1001.6021118164062 748.4002685546875 1001.6021118164062 581.80029296875V96.60015869140625L1149.4015502929688 48.60009765625V0H664.4004516601562Z"/><path transform="translate(1150.00 0)" d="M410.20208740234375 907.0003662109375 401.20196533203125 717.1993408203125V96.60015869140625L547.0014038085938 48.60009765625V0H58.59991455078125V48.60009765625L203.39935302734375 96.60015869140625V694.3994750976562Q191.59930419921875 707.3995971679688 167.599365234375 723.1996459960938Q143.59942626953125 738.9996948242188 114.69952392578125 754.4997253417969Q85.79962158203125 769.999755859375 55.7996826171875 781.1998291015625V820.6000366210938L375.60150146484375 907.0003662109375Z"/><path transform="translate(1712.00 0)" d="M693.2017822265625 900.0003051757812Q748.2020874023438 900.0003051757812 774.0021667480469 871.4000854492188Q799.80224609375 842.7998657226562 799.80224609375 798.399658203125Q799.80224609375 743.19921875 768.6019897460938 712.0990600585938Q737.4017333984375 680.9989013671875 690.8016967773438 680.9989013671875Q659.2013549804688 680.9989013671875 631.1012573242188 688.4989013671875Q603.0011596679688 695.9989013671875 574.7011413574219 703.0989074707031Q546.401123046875 710.1989135742188 512.801025390625 710.1989135742188Q489.60101318359375 710.1989135742188 464.1011047363281 704.4989318847656Q438.6011962890625 698.7989501953125 413.40130615234375 687.5989685058594Q388.201416015625 676.3989868164062 367.40142822265625 660.198974609375L343.00140380859375 700.79931640625Q405.80133056640625 754.3995971679688 456.40130615234375 792.0997924804688Q507.00128173828125 829.7999877929688 549.601318359375 853.60009765625Q592.2013549804688 877.4002075195312 627.50146484375 888.7002563476562Q662.8015747070312 900.0003051757812 693.2017822265625 900.0003051757812ZM400.00201416015625 712.7999877929688V98.000244140625L553.8016357421875 48.60009765625V0H56.199951171875V48.60009765625L201.9993896484375 96.60015869140625V680.5994262695312Q188.1993408203125 695.9995727539062 166.599365234375 709.2996520996094Q144.9993896484375 722.5997314453125 116.5994873046875 736.7997741699219Q88.1995849609375 750.9998168945312 53.39971923828125 764.9998168945312V798.2001342773438L346.601318359375 907.8003540039062H375.401611328125Z"/><path transform="translate(2481.19 0)" d="M535.4005126953125 77.20050048828125Q608.2000122070312 77.20050048828125 663.4996032714844 112.10037231445312Q718.7991943359375 147.000244140625 749.2989501953125 221.30007934570312Q779.7987060546875 295.59991455078125 779.7987060546875 412.99981689453125Q779.7987060546875 543.1998291015625 750.0989379882812 630.3998107910156Q720.399169921875 717.5997924804688 665.1995544433594 762.6997680664062Q609.9999389648438 807.7997436523438 531.400390625 807.7997436523438Q458.8009033203125 807.7997436523438 403.90130615234375 772.8998718261719Q349.001708984375 738 317.9019470214844 663.7001647949219Q286.80218505859375 589.4003295898438 286.80218505859375 471.00042724609375Q286.80218505859375 342.60040283203125 316.4019470214844 254.50042724609375Q346.001708984375 166.40045166015625 401.80133056640625 121.80047607421875Q457.6009521484375 77.20050048828125 535.4005126953125 77.20050048828125ZM527.8003540039062 -22.0001220703125Q390.60003662109375 -22.0001220703125 288.2998962402344 35.099884033203125Q185.999755859375 92.19989013671875 130.29971313476562 195.39993286132812Q74.59967041015625 298.5999755859375 74.59967041015625 433.00006103515625Q74.59967041015625 572.0001831054688 133.999755859375 679.1002502441406Q193.39984130859375 786.2003173828125 298.0000305175781 846.600341796875Q402.6002197265625 907.0003662109375 539.0005493164062 907.0003662109375Q677.2008666992188 907.0003662109375 779.0010070800781 849.4003601074219Q880.8011474609375 791.8003540039062 937.0011901855469 689.6003112792969Q993.2012329101562 587.4002685546875 993.2012329101562 452.00018310546875Q993.2012329101562 313.2000732421875 933.8011474609375 206.0Q874.4010620117188 98.7999267578125 769.7008666992188 38.39990234375Q665.0006713867188 -22.0001220703125 527.8003540039062 -22.0001220703125Z"/></g>
    <g fill="#f6f1e7" transform="translate(941.0 -2150.0) scale(41.666666666666664)">
      <path transform="rotate(214 12 13.5)" d="M12 2 C 12 2 5.5 9.5 5.5 15 A 6.5 6.5 0 0 0 18.5 15 C 18.5 9.5 12 2 12 2 Z"/>
    </g>
  </g>
  <g transform="translate(240.84 751.65) scale(0.098211 -0.098211)" fill="#0c1f18"><path transform="translate(0.00 0)" d="M769.1990356445312 609.60009765625Q769.1990356445312 696.4000244140625 716.0993957519531 751.3999328613281Q662.999755859375 806.3998413085938 555.2005004882812 806.3998413085938Q471.00103759765625 806.3998413085938 411.8013916015625 764.9000244140625Q352.60174560546875 723.4002075195312 321.8019104003906 643.8003540039062Q291.0020751953125 564.2005004882812 291.0020751953125 450.60040283203125Q291.0020751953125 339.200439453125 324.1018981933594 263.800537109375Q357.20172119140625 188.400634765625 417.6014099121094 150.80072021484375Q478.0010986328125 113.2008056640625 560.000732421875 113.2008056640625Q629.2001342773438 113.2008056640625 695.8997192382812 134.30059814453125Q762.5993041992188 155.400390625 826.598876953125 200V128.79962158203125Q751.3991088867188 81.79974365234375 698.9992065429688 51.699798583984375Q646.5993041992188 21.599853515625 607.7993469238281 5.79986572265625Q568.9993896484375 -10.0001220703125 536.3994140625 -16.0001220703125Q503.7994384765625 -22.0001220703125 469.99951171875 -22.0001220703125Q341.59954833984375 -22.0001220703125 253.29959106445312 30.999908447265625Q164.9996337890625 83.99993896484375 120.399658203125 178.89999389648438Q75.7996826171875 273.800048828125 75.7996826171875 399.0001220703125Q75.7996826171875 519.4002685546875 115.19976806640625 613.4003295898438Q154.599853515625 707.400390625 223.99996948242188 772.900390625Q293.40008544921875 838.400390625 383.00018310546875 872.7003784179688Q472.60028076171875 907.0003662109375 572.4003295898438 907.0003662109375Q625.8004150390625 907.0003662109375 675.1004638671875 898.5003662109375Q724.4005126953125 890.0003662109375 775.9005737304688 872.6003723144531Q827.400634765625 855.2003784179688 886.2007446289062 825.2003784179688L769.1990356445312 780.2010498046875V1226.7987060546875Q756.3989868164062 1241.1987915039062 733.4989929199219 1255.4988403320312Q710.5989990234375 1269.7988891601562 682.4989929199219 1283.39892578125Q654.3989868164062 1296.9989624023438 623.598876953125 1310.1990356445312V1346.3995361328125L950.4014282226562 1432.0001220703125H979.4017944335938L966.20166015625 1246.3991088867188V166.80059814453125Q975.8016967773438 157.00054931640625 992.1016845703125 146.4005126953125Q1008.4016723632812 135.80047607421875 1027.9016418457031 125.30044555664062Q1047.401611328125 114.8004150390625 1066.8016052246094 107.10037231445312Q1086.2015991210938 99.40032958984375 1103.20166015625 95.000244140625V59.20001220703125L824.799560546875 -19.60015869140625H797.79931640625L769.1990356445312 147Z"/><path transform="translate(1213.00 0)" d="M293.00079345703125 1162.9985961914062Q229.40032958984375 1162.9985961914062 190.20010375976562 1201.0988159179688Q150.9998779296875 1239.1990356445312 150.9998779296875 1297.9993896484375Q150.9998779296875 1356.3997192382812 190.20010375976562 1394.1999206542969Q229.40032958984375 1432.0001220703125 293.00079345703125 1432.0001220703125Q356.80126953125 1432.0001220703125 395.5014953613281 1394.1999206542969Q434.20172119140625 1356.3997192382812 434.20172119140625 1297.9993896484375Q434.20172119140625 1239.1990356445312 395.5014953613281 1201.0988159179688Q356.80126953125 1162.9985961914062 293.00079345703125 1162.9985961914062ZM410.20208740234375 907.0003662109375 401.20196533203125 717.1993408203125V96.60015869140625L547.0014038085938 48.60009765625V0H58.59991455078125V48.60009765625L203.39935302734375 96.60015869140625V694.3994750976562Q191.59930419921875 707.3995971679688 167.599365234375 723.1996459960938Q143.59942626953125 738.9996948242188 114.69952392578125 754.4997253417969Q85.79962158203125 769.999755859375 55.7996826171875 781.1998291015625V820.6000366210938L375.60150146484375 907.0003662109375Z"/><path transform="translate(1875.00 0)" d="M693.2017822265625 900.0003051757812Q748.2020874023438 900.0003051757812 774.0021667480469 871.4000854492188Q799.80224609375 842.7998657226562 799.80224609375 798.399658203125Q799.80224609375 743.19921875 768.6019897460938 712.0990600585938Q737.4017333984375 680.9989013671875 690.8016967773438 680.9989013671875Q659.2013549804688 680.9989013671875 631.1012573242188 688.4989013671875Q603.0011596679688 695.9989013671875 574.7011413574219 703.0989074707031Q546.401123046875 710.1989135742188 512.801025390625 710.1989135742188Q489.60101318359375 710.1989135742188 464.1011047363281 704.4989318847656Q438.6011962890625 698.7989501953125 413.40130615234375 687.5989685058594Q388.201416015625 676.3989868164062 367.40142822265625 660.198974609375L343.00140380859375 700.79931640625Q405.80133056640625 754.3995971679688 456.40130615234375 792.0997924804688Q507.00128173828125 829.7999877929688 549.601318359375 853.60009765625Q592.2013549804688 877.4002075195312 627.50146484375 888.7002563476562Q662.8015747070312 900.0003051757812 693.2017822265625 900.0003051757812ZM400.00201416015625 712.7999877929688V98.000244140625L553.8016357421875 48.60009765625V0H56.199951171875V48.60009765625L201.9993896484375 96.60015869140625V680.5994262695312Q188.1993408203125 695.9995727539062 166.599365234375 709.2996520996094Q144.9993896484375 722.5997314453125 116.5994873046875 736.7997741699219Q88.1995849609375 750.9998168945312 53.39971923828125 764.9998168945312V798.2001342773438L346.601318359375 907.8003540039062H375.401611328125Z"/><path transform="translate(2744.19 0)" d="M503.00054931640625 907.0003662109375Q616.40087890625 907.0003662109375 695.10107421875 858.9002990722656Q773.80126953125 810.8002319335938 817.7013549804688 718.9000854492188Q861.6014404296875 626.9999389648438 871.00146484375 494.5997314453125H225.60107421875L226.40106201171875 579.0000610351562L750.6005249023438 600.0001220703125L667.3994750976562 555.7998046875Q662.3995361328125 638 641.2996520996094 694.8000183105469Q620.1997680664062 751.6000366210938 581.9999389648438 781.1999816894531Q543.8001098632812 810.7999267578125 487.20037841796875 810.7999267578125Q421.0008544921875 810.7999267578125 371.5011901855469 775.8001403808594Q322.00152587890625 740.8003540039062 294.9017028808594 669.5005493164062Q267.8018798828125 598.2007446289062 267.8018798828125 487.40069580078125Q267.8018798828125 373.00079345703125 308.9017639160156 293.3009338378906Q350.00164794921875 213.60107421875 427.1014709472656 171.90118408203125Q504.2012939453125 130.2012939453125 609.60107421875 130.2012939453125Q653.8011474609375 130.2012939453125 694.0011596679688 139.80123901367188Q734.201171875 149.40118408203125 773.3011779785156 167.70111083984375Q812.4011840820312 186.00103759765625 849.4012451171875 212.20098876953125L872.0014038085938 165.2005615234375Q817.001220703125 104.80047607421875 758.4010620117188 62.600311279296875Q699.8009033203125 20.400146484375 637.1007385253906 -0.79998779296875Q574.4005737304688 -22.0001220703125 505.400390625 -22.0001220703125Q377.00006103515625 -22.0001220703125 279.9999084472656 35.59991455078125Q182.999755859375 93.199951171875 128.79971313476562 195.0Q74.59967041015625 296.800048828125 74.59967041015625 429.40008544921875Q74.59967041015625 563.400146484375 125.5997314453125 671.5002136230469Q176.59979248046875 779.6002807617188 272.6999816894531 843.3003234863281Q368.8001708984375 907.0003662109375 503.00054931640625 907.0003662109375Z"/><path transform="translate(3766.19 0)" d="M585.4008178710938 907.0003662109375Q679.6011352539062 907.0003662109375 735.1013488769531 886.5003356933594Q790.6015625 866.0003051757812 814.8016662597656 835.2001953125Q839.0017700195312 804.4000854492188 839.0017700195312 772.3998413085938Q839.0017700195312 739.9996948242188 825.3016662597656 715.5995788574219Q811.6015625 691.199462890625 786.8014221191406 677.2994079589844Q762.0012817382812 663.3993530273438 730.201171875 663.3993530273438Q703.4010620117188 663.3993530273438 678.8009643554688 677.4994201660156Q654.2008666992188 691.5994873046875 630.7007751464844 713.0995788574219Q607.20068359375 734.5996704101562 584.3006286621094 755.6997680664062Q561.4005737304688 776.7998657226562 537.3005676269531 790.7999267578125Q513.2005615234375 804.7999877929688 486.20062255859375 804.7999877929688Q429.00091552734375 804.7999877929688 378.6011962890625 773.6001281738281Q328.20147705078125 742.4002685546875 297.5016784667969 677.2004699707031Q266.8018798828125 612.0006713867188 266.8018798828125 510.0008544921875Q266.8018798828125 389.00079345703125 305.2017822265625 304.1009216308594Q343.6016845703125 219.2010498046875 415.8015441894531 174.90118408203125Q488.00140380859375 130.601318359375 588.4012451171875 130.601318359375Q649.201416015625 130.601318359375 706.6014099121094 151.40121459960938Q764.0014038085938 172.20111083984375 821.2014770507812 212.801025390625L844.4016723632812 165.6005859375Q787.4013061523438 101.60028076171875 729.9010620117188 59.70013427734375Q672.4008178710938 17.79998779296875 612.8006896972656 -2.100067138671875Q553.2005615234375 -22.0001220703125 487.800537109375 -22.0001220703125Q365.00018310546875 -22.0001220703125 271.3999938964844 34.499908447265625Q177.7998046875 90.99993896484375 126.0997314453125 190.89999389648438Q74.399658203125 290.800048828125 74.399658203125 419.60009765625Q74.399658203125 521.8001708984375 108.19973754882812 610.6002197265625Q141.99981689453125 699.4002685546875 206.99996948242188 765.5003051757812Q272.0001220703125 831.600341796875 367.5003356933594 869.3003540039062Q463.00054931640625 907.0003662109375 585.4008178710938 907.0003662109375Z"/><path transform="translate(4743.19 0)" d="M364.8023681640625 261.6005859375Q364.8023681640625 194.40081787109375 406.3023376464844 161.90087890625Q447.80230712890625 129.40093994140625 527.8023071289062 129.40093994140625Q564.40234375 129.40093994140625 608.5024108886719 136.70095825195312Q652.6024780273438 144.0009765625 703.0025634765625 159.801025390625V99.8006591796875Q637.2022705078125 55.00042724609375 586.2019653320312 28.500244140625Q535.20166015625 2.00006103515625 493.9013977050781 -8.800048828125Q452.60113525390625 -19.60015869140625 415.0009765625 -19.60015869140625Q340.80059814453125 -19.60015869140625 285.40032958984375 6.09991455078125Q230.00006103515625 31.79998779296875 198.99990844726562 84.60018920898438Q167.999755859375 137.400390625 167.999755859375 215.4007568359375V730.9993286132812L39.79937744140625 813.5999755859375V846.8004150390625Q67.9993896484375 863.200439453125 96.1995849609375 881.2005310058594Q124.3997802734375 899.2006225585938 152.7000732421875 918.8007507324219Q181.0003662109375 938.40087890625 208.30068969726562 958.5010070800781Q235.60101318359375 978.6011352539062 262.50128173828125 1000.3012084960938Q289.40155029296875 1022.0012817382812 314.80169677734375 1043.6012573242188H364.8023681640625V856.2003784179688ZM286.20123291015625 768.9994506835938 287.20123291015625 885.000244140625H674.00244140625L660.0023803710938 768.9994506835938Z"/></g>
</svg>
